<?xml version="1.0" encoding="UTF-8" standalone="no" ?>
<!DOCTYPE svg PUBLIC "-//W3C//DTD SVG 1.1//EN" "http://www.w3.org/Graphics/SVG/1.1/DTD/svg11.dtd">
<svg xmlns="http://www.w3.org/2000/svg" xmlns:xlink="http://www.w3.org/1999/xlink" version="1.1" width="1080" height="1080" viewBox="0 0 1080 1080" xml:space="preserve">
<desc>Created with Fabric.js 5.2.4</desc>
<defs>
</defs>
<g transform="matrix(1 0 0 1 540 540)" id="e244b9fb-6378-4952-b830-ac83c1adbd2a"  >
</g>
<g transform="matrix(1 0 0 1 540 540)" id="a684746e-d918-4814-894b-6990d0be717b"  >
<rect style="stroke: none; stroke-width: 1; stroke-dasharray: none; stroke-linecap: butt; stroke-dashoffset: 0; stroke-linejoin: miter; stroke-miterlimit: 4; fill: rgb(22,0,146); fill-rule: nonzero; opacity: 1;" vector-effect="non-scaling-stroke"  x="-540" y="-540" rx="0" ry="0" width="1080" height="1080" />
</g>
<g transform="matrix(0 0.13 0.13 0 400.16 522.44)"  >
<path style="stroke: none; stroke-width: 1; stroke-dasharray: none; stroke-linecap: butt; stroke-dashoffset: 0; stroke-linejoin: miter; stroke-miterlimit: 4; fill: rgb(255,255,255); fill-rule: nonzero; opacity: 1;" vector-effect="non-scaling-stroke"  transform=" translate(-2643.17, -3680.5)" d="M 1656 3701 C 1653 3697 1659 3683 1668 3672 L 1687 3651 L 2636 3652 C 3158 3652 3595 3657 3608 3661 C 3621 3666 3628 3675 3624 3681 C 3621 3687 3624 3696 3631 3701 C 3639 3706 3222 3710 2653 3710 C 2100 3710 1659 3706 1656 3701 z" stroke-linecap="round" />
</g>
<g transform="matrix(0.13 0 0 -0.13 515.71 442.84)"  >
<path style="stroke: none; stroke-width: 1; stroke-dasharray: none; stroke-linecap: butt; stroke-dashoffset: 0; stroke-linejoin: miter; stroke-miterlimit: 4; fill: rgb(255,255,255); fill-rule: nonzero; opacity: 1;" vector-effect="non-scaling-stroke"  transform=" translate(-2420, -3062.57)" d="M 2303 3433 C 2293 3429 2290 3345 2290 3057 L 2290 2686 L 2318 2712 C 2367 2759 2412 2780 2463 2780 C 2490 2780 2520 2775 2531 2770 C 2550 2760 2550 2766 2550 3094 C 2550 3389 2548 3429 2534 3434 C 2515 3441 2321 3441 2303 3433 z" stroke-linecap="round" />
</g>
<g transform="matrix(0.13 0 0 -0.13 579.81 478.99)"  >
<path style="stroke: none; stroke-width: 1; stroke-dasharray: none; stroke-linecap: butt; stroke-dashoffset: 0; stroke-linejoin: miter; stroke-miterlimit: 4; fill: rgb(255,255,255); fill-rule: nonzero; opacity: 1;" vector-effect="non-scaling-stroke"  transform=" translate(-2900.7, -2792.99)" d="M 2782 3101 C 2773 3095 2770 3032 2772 2830 L 2775 2566 L 2828 2523 C 2890 2473 2940 2466 2996 2501 L 3030 2522 L 3030 2805 C 3030 3021 3027 3091 3018 3097 C 3001 3107 2798 3111 2782 3101 z" stroke-linecap="round" />
</g>
<g transform="matrix(0.13 0 0 -0.13 448.4 478.95)"  >
<path style="stroke: none; stroke-width: 1; stroke-dasharray: none; stroke-linecap: butt; stroke-dashoffset: 0; stroke-linejoin: miter; stroke-miterlimit: 4; fill: rgb(255,255,255); fill-rule: nonzero; opacity: 1;" vector-effect="non-scaling-stroke"  transform=" translate(-1915, -2794.13)" d="M 1797 3074 C 1793 3070 1790 2941 1790 2788 L 1790 2510 L 1915 2510 L 2040 2510 L 2038 2793 L 2035 3075 L 1919 3078 C 1856 3079 1801 3077 1797 3074 z" stroke-linecap="round" />
</g>
<g transform="matrix(0.13 0 0 -0.13 644.29 464.17)"  >
<path style="stroke: none; stroke-width: 1; stroke-dasharray: none; stroke-linecap: butt; stroke-dashoffset: 0; stroke-linejoin: miter; stroke-miterlimit: 4; fill: rgb(255,255,255); fill-rule: nonzero; opacity: 1;" vector-effect="non-scaling-stroke"  transform=" translate(-3384.28, -2908.49)" d="M 3263 3033 C 3259 3023 3257 2948 3260 2865 C 3263 2783 3267 2744 3268 2781 C 3269 2817 3275 2851 3282 2858 C 3290 2866 3331 2870 3402 2870 L 3510 2870 L 3510 2948 C 3510 2995 3505 3031 3498 3038 C 3490 3046 3449 3050 3378 3050 C 3285 3050 3270 3048 3263 3033 z" stroke-linecap="round" />
</g>
<g transform="matrix(0.13 0 0 -0.13 515.29 573.67)"  >
<path style="stroke: none; stroke-width: 1; stroke-dasharray: none; stroke-linecap: butt; stroke-dashoffset: 0; stroke-linejoin: miter; stroke-miterlimit: 4; fill: rgb(255,255,255); fill-rule: nonzero; opacity: 1;" vector-effect="non-scaling-stroke"  transform=" translate(-2416.83, -2075.95)" d="M 2404 2655 C 2387 2646 2354 2620 2329 2597 L 2285 2555 L 2290 2020 L 2295 1485 L 2420 1485 L 2545 1485 L 2548 2061 C 2550 2565 2548 2639 2535 2650 C 2511 2670 2439 2673 2404 2655 z" stroke-linecap="round" />
</g>
<g transform="matrix(0.13 0 0 -0.13 644.4 516.59)"  >
<path style="stroke: none; stroke-width: 1; stroke-dasharray: none; stroke-linecap: butt; stroke-dashoffset: 0; stroke-linejoin: miter; stroke-miterlimit: 4; fill: rgb(255,255,255); fill-rule: nonzero; opacity: 1;" vector-effect="non-scaling-stroke"  transform=" translate(-3385, -2515)" d="M 3312 2634 L 3260 2597 L 3260 2479 L 3260 2360 L 3385 2360 L 3510 2360 L 3510 2515 L 3510 2670 L 3437 2670 C 3369 2670 3360 2667 3312 2634 z" stroke-linecap="round" />
</g>
<g transform="matrix(0.13 0 0 -0.13 579.44 546.54)"  >
<path style="stroke: none; stroke-width: 1; stroke-dasharray: none; stroke-linecap: butt; stroke-dashoffset: 0; stroke-linejoin: miter; stroke-miterlimit: 4; fill: rgb(255,255,255); fill-rule: nonzero; opacity: 1;" vector-effect="non-scaling-stroke"  transform=" translate(-2898, -2290)" d="M 2768 2290 L 2771 2120 L 2900 2120 L 3030 2120 L 3030 2265 L 3030 2411 L 3000 2395 C 2968 2378 2894 2375 2858 2389 C 2845 2394 2819 2412 2801 2429 C 2783 2446 2767 2460 2766 2460 C 2766 2460 2766 2384 2768 2290 z" stroke-linecap="round" />
</g>
<g transform="matrix(0.13 0 0 -0.13 448.28 602.7)"  >
<path style="stroke: none; stroke-width: 1; stroke-dasharray: none; stroke-linecap: butt; stroke-dashoffset: 0; stroke-linejoin: miter; stroke-miterlimit: 4; fill: rgb(255,255,255); fill-rule: nonzero; opacity: 1;" vector-effect="non-scaling-stroke"  transform=" translate(-1914.13, -1863.5)" d="M 1908 2243 L 1790 2239 L 1790 1859 L 1790 1479 L 1913 1482 L 2035 1485 L 2038 1868 C 2039 2078 2037 2249 2033 2248 C 2028 2247 1972 2244 1908 2243 z" stroke-linecap="round" />
</g>
<g transform="matrix(0.13 0 0 -0.13 644.29 611.62)"  >
<path style="stroke: none; stroke-width: 1; stroke-dasharray: none; stroke-linecap: butt; stroke-dashoffset: 0; stroke-linejoin: miter; stroke-miterlimit: 4; fill: rgb(255,255,255); fill-rule: nonzero; opacity: 1;" vector-effect="non-scaling-stroke"  transform=" translate(-3384.19, -1798.2)" d="M 3382 2112 L 3260 2109 L 3262 1797 L 3265 1485 L 3383 1482 C 3472 1480 3502 1483 3505 1492 C 3508 1499 3509 1642 3508 1810 L 3505 2115 L 3382 2112 z" stroke-linecap="round" />
</g>
<g transform="matrix(0.13 0 0 -0.13 579.71 627.44)"  >
<path style="stroke: none; stroke-width: 1; stroke-dasharray: none; stroke-linecap: butt; stroke-dashoffset: 0; stroke-linejoin: miter; stroke-miterlimit: 4; fill: rgb(255,255,255); fill-rule: nonzero; opacity: 1;" vector-effect="non-scaling-stroke"  transform=" translate(-2900, -1682.5)" d="M 2772 1683 L 2775 1485 L 2900 1485 L 3025 1485 L 3028 1683 L 3030 1880 L 2900 1880 L 2770 1880 L 2772 1683 z" stroke-linecap="round" />
</g>
<g transform="matrix(0.13 0 0 -0.13 548.19 666.61)"  >
<path style="stroke: none; stroke-width: 1; stroke-dasharray: none; stroke-linecap: butt; stroke-dashoffset: 0; stroke-linejoin: miter; stroke-miterlimit: 4; fill: rgb(255,255,255); fill-rule: nonzero; opacity: 1;" vector-effect="non-scaling-stroke"  transform=" translate(-2686.43, -1390)" d="M 3688 1466 C 3684 1383 3668 1352 3610 1313 L 3577 1290 L 2634 1290 C 2039 1290 1682 1294 1665 1300 C 1641 1309 1640 1308 1651 1289 C 1677 1239 1664 1240 2653 1240 C 3560 1240 3578 1240 3626 1260 C 3689 1286 3722 1335 3728 1408 C 3732 1460 3715 1540 3699 1540 C 3695 1540 3690 1506 3688 1466 z" stroke-linecap="round" />
</g>
</svg>